<?xml version="1.0" encoding="UTF-8"?>
<svg style="background-color:transparent;" preserveAspectRatio="xMinYMin meet" height="323" width="700" viewBox="585 232 720 343" xmlns:xlink="http://www.w3.org/1999/xlink" xmlns="http://www.w3.org/2000/svg" ><defs><g id="linkshape" class="svglink"><rect width="26" height="25.705463" x="0" y="0" rx="26" style="fill:#fff;stroke:none;"/><path d="m12.96972,3.89162c-1.46202,0.0926 -1.96087,1.3485 -1.97318,2.16807c0.061,1.06359 0.95974,1.43208 1.91556,1.67657c0.86622,0.20718 2.53795,-0.39401 2.58252,-1.25608c0.1196,-2.10236 -0.96772,-2.51327 -2.5249,-2.58856 z" style="fill:none;stroke:#00642A;stroke-width:1.33538628"/><path d="m13.33742,8.10908c-0.00095,4.26823 0.42843,9.17994 0.13576,13.07847" style="fill:none;stroke:#00642A;stroke-width:1.33538628"/><path d="m5.79976,15.83298c1.21269,7.46208 13.76733,8.39403 14.45306,0.22481" style="fill:none;stroke:#00642A;stroke-width:1.33538628"/><path d="m20.53438,12.70151c0.36453,0.65146 1.3076,1.62194 1.50505,2.23541c0.14125,0.40272 0.14865,0.52327 -0.60832,0.50239c-0.84553,0.0577 -2.5409,0.2236 -3.30599,0.13608c-0.42486,-0.124 -0.38393,-0.3733 -0.15689,-0.81348c0.4456,-0.73802 0.83742,-1.23374 1.36025,-2.03069c0.44058,-0.5668 0.8427,-0.6095 1.2059,-0.0297 z" style="fill:none;stroke:#00642A;stroke-width:1.33538628"/><path d="m6.65205,12.98495c0.46781,0.5895 0.69238,0.72549 1.30269,1.52036c0.2394,0.21964 0.28495,0.66561 -0.15744,0.62957c-1.02897,0.0804 -2.31388,0.096 -3.23877,0.112c-0.84264,0.0267 -0.72894,-0.1367 -0.46065,-0.75013c0.29098,-0.54544 0.6673,-0.89767 1.08185,-1.59111c0.54713,-0.81778 0.90943,-0.7521 1.47232,0.0793 z" style="fill:none;stroke:#00642A;stroke-width:1.33538628"/></g><style type="text/css">.svg-txt-center tspan {text-anchor: middle;} .svg-txt-right tspan {text-anchor: end;} svg a {fill: #0088cc;} .dark-shape a {fill:#B8ECFF;}</style></defs><g><g/><g><g class="shapebase"><g transform="matrix(1.00000000,0.00000000,0.00000000,1.00000000,887.00000000,379.00000000)"><path fill="rgb(204, 204, 255)" fill-opacity="0" stroke="rgb(204, 102, 0)" stroke-opacity="1" stroke-width="3.0" stroke-linecap="butt" stroke-linejoin="miter" stroke-miterlimit="4" path="" stroke-dasharray="none" d="m1.0981670893839401,73.96698104924143l136.86674375666817,-1.1737171372720103l0,-67.73126167368206l-16.844204514237163,0l-1.0544378925041689,-14.458025366088103l-21.05560829761,0l-2.1060686526925068,13.284308228816093l-49.482407507969874,1.1737171372720103l-4.210719633034557,-10.937660101048545l-17.897937097114237,0l-2.1060686526925068,10.937660101048545l-23.16236815373706,0z" fill-rule="evenodd"/></g><rect fill="rgb(0, 0, 0)" fill-opacity="0" stroke="none" stroke-opacity="0" stroke-width="1" stroke-linecap="butt" stroke-linejoin="miter" stroke-miterlimit="4" x="887" y="379" width="138" height="74" ry="0" rx="0" fill-rule="evenodd"/><g transform="matrix(1.00000000,0.00000000,0.00000000,1.00000000,887.00000000,379.00000000)"><g class="shapebase"><text fill="rgb(51, 51, 51)" fill-opacity="1" stroke="none" stroke-opacity="0" stroke-width="1" stroke-linecap="butt" stroke-linejoin="miter" stroke-miterlimit="4" x="69" y="41" text-anchor="middle" text-decoration="none" rotate="0" kerning="auto" text-rendering="auto" fill-rule="evenodd" font-style="normal" font-variant="normal" font-weight="bold" font-size="12px" font-family="arial,helvetica,sans-serif">Store</text></g></g></g><g class="shapebase"><polyline fill="rgb(255, 255, 255)" fill-opacity="0" stroke="rgb(204, 0, 153)" stroke-opacity="1" stroke-width="2" stroke-linecap="butt" stroke-linejoin="miter" stroke-miterlimit="4" points="1171.60905515 453.43917198 1183.00000000 437.00000000 1163.06778702 435.35473838" fill-rule="evenodd" stroke-dasharray="none" dojoGfxStrokeStyle="solid" style="display: inline;"/><path fill="none" fill-opacity="0" stroke="rgb(204, 0, 153)" stroke-opacity="1" stroke-width="2" stroke-linecap="butt" stroke-linejoin="miter" stroke-miterlimit="4" path="" stroke-dasharray="none" d="M1027,436 C1027,436 1094.4969652576763,457.3773314201257 1129,455 1147.9287869663628,453.69576689888095 1183,437 1183,437"/><path fill="none" fill-opacity="0" stroke="rgb(51, 51, 51)" stroke-opacity="0" stroke-width="10" stroke-linecap="butt" stroke-linejoin="miter" stroke-miterlimit="4" path="" stroke-dasharray="none" style="display: none;" d="M1027,436 C1027,436 1094.4969652576763,457.3773314201257 1129,455 1147.9287869663628,453.69576689888095 1183,437 1183,437"/><path fill="rgb(250, 250, 250)" fill-opacity="1" stroke="rgb(204, 0, 153)" stroke-opacity="1" stroke-width="2" stroke-linecap="butt" stroke-linejoin="miter" stroke-miterlimit="4" path="" stroke-dasharray="none" fill-rule="evenodd" style="display: none;"/><path fill="rgb(250, 250, 250)" fill-opacity="1" stroke="rgb(204, 0, 153)" stroke-opacity="1" stroke-width="2" stroke-linecap="butt" stroke-linejoin="miter" stroke-miterlimit="4" path="" fill-rule="evenodd" stroke-dasharray="none" style="display: none;"/></g><g class="shapebase"><g transform="matrix(1.00000000,0.00000000,0.00000000,1.00000000,1070.00000000,464.00000000)"><path fill="rgb(204, 204, 255)" fill-opacity="0" stroke="rgb(51, 0, 255)" stroke-opacity="1" stroke-width="3.0" stroke-linecap="butt" stroke-linejoin="miter" stroke-miterlimit="4" path="" stroke-dasharray="none" d="m81.84285094986754,18.48557011178838c0,3.03851070813121 -3.5363517825912893,5.501262922606358 -7.899455263309308,5.501262922606358l-66.01954477470687,0c-4.363103480718019,0 -7.899455263309308,-2.462752214475148 -7.899455263309308,-5.501262922606358l0,-11.39602521839376c0,-3.03851070813121 3.5363517825912893,-5.501262922606358 7.899455263309308,-5.501262922606358l67.14777416141226,-1.5717434046617675c4.363547374247214,0 7.8998991568385035,3.2487720425929902 7.8998991568385035,6.2872827507242l-1.1286880766855487,12.181735914434473z" fill-rule="evenodd"/></g><rect fill="rgb(0, 0, 0)" fill-opacity="0" stroke="none" stroke-opacity="0" stroke-width="1" stroke-linecap="butt" stroke-linejoin="miter" stroke-miterlimit="4" x="1070" y="464" width="83" height="24" ry="0" rx="0" fill-rule="evenodd"/><g transform="matrix(1.00000000,0.00000000,0.00000000,1.00000000,1070.00000000,464.00000000)"><g class="shapebase"><text fill="rgb(51, 51, 51)" fill-opacity="1" stroke="none" stroke-opacity="0" stroke-width="1" stroke-linecap="butt" stroke-linejoin="miter" stroke-miterlimit="4" x="41" y="16" text-anchor="middle" text-decoration="none" rotate="0" kerning="auto" text-rendering="auto" fill-rule="evenodd" font-style="normal" font-variant="normal" font-weight="bold" font-size="12px" font-family="arial,helvetica,sans-serif">Action</text></g></g></g><g class="shapebase"><g transform="matrix(1.00000000,0.00000000,0.00000000,1.00000000,1069.00000000,494.00000000)"><path fill="rgb(204, 204, 255)" fill-opacity="0" stroke="rgb(204, 102, 0)" stroke-opacity="1" stroke-width="3.0" stroke-linecap="butt" stroke-linejoin="miter" stroke-miterlimit="4" path="" stroke-dasharray="none" d="m80.8567925046884,20.79626637576193c0,3.4183245466476118 -3.4937451346082615,6.188920787932153 -7.8042811035104,6.188920787932153l-65.22412857260197,0c-4.310535968902139,0 -7.8042811035104,-2.7705962412845415 -7.8042811035104,-6.188920787932153l0,-12.820528370692982c0,-3.4183245466476118 3.4937451346082615,-6.188920787932153 7.8042811035104,-6.188920787932153l66.33876483416633,-1.7682113302444884c4.310974514316524,0 7.804719648924786,3.654868547917114 7.804719648924786,7.073193094564725l-1.1150894251592167,13.704452903738783z" fill-rule="evenodd"/></g><rect fill="rgb(0, 0, 0)" fill-opacity="0" stroke="none" stroke-opacity="0" stroke-width="1" stroke-linecap="butt" stroke-linejoin="miter" stroke-miterlimit="4" x="1069" y="494" width="82" height="27" ry="0" rx="0" fill-rule="evenodd"/><g transform="matrix(1.00000000,0.00000000,0.00000000,1.00000000,1069.00000000,494.00000000)"><g class="shapebase"><text fill="rgb(51, 51, 51)" fill-opacity="1" stroke="none" stroke-opacity="0" stroke-width="1" stroke-linecap="butt" stroke-linejoin="miter" stroke-miterlimit="4" x="41" y="17" text-anchor="middle" text-decoration="none" rotate="0" kerning="auto" text-rendering="auto" fill-rule="evenodd" font-style="normal" font-variant="normal" font-weight="bold" font-size="12px" font-family="arial,helvetica,sans-serif">State (OLD)</text></g></g></g><g class="shapebase"><polyline fill="rgb(255, 255, 255)" fill-opacity="0" stroke="rgb(204, 0, 153)" stroke-opacity="1" stroke-width="2" stroke-linecap="butt" stroke-linejoin="miter" stroke-miterlimit="4" points="1044.48762167 394.34561044 1029.00000000 407.00000000 1047.70283366 414.08547903" fill-rule="evenodd" stroke-dasharray="none" dojoGfxStrokeStyle="solid" style="display: inline;"/><path fill="none" fill-opacity="0" stroke="rgb(204, 0, 153)" stroke-opacity="1" stroke-width="2" stroke-linecap="butt" stroke-linejoin="miter" stroke-miterlimit="4" path="" stroke-dasharray="none" d="M1185,417 C1185,417 1153.8128669764164,402.33208386307973 1137,400 1101.2665794945792,395.04347869698694 1029,407 1029,407"/><path fill="none" fill-opacity="0" stroke="rgb(51, 51, 51)" stroke-opacity="0" stroke-width="10" stroke-linecap="butt" stroke-linejoin="miter" stroke-miterlimit="4" path="" stroke-dasharray="none" style="display: none;" d="M1185,417 C1185,417 1153.8128669764164,402.33208386307973 1137,400 1101.2665794945792,395.04347869698694 1029,407 1029,407"/><path fill="rgb(250, 250, 250)" fill-opacity="1" stroke="rgb(204, 0, 153)" stroke-opacity="1" stroke-width="2" stroke-linecap="butt" stroke-linejoin="miter" stroke-miterlimit="4" path="" stroke-dasharray="none" fill-rule="evenodd" style="display: none;"/><path fill="rgb(250, 250, 250)" fill-opacity="1" stroke="rgb(204, 0, 153)" stroke-opacity="1" stroke-width="2" stroke-linecap="butt" stroke-linejoin="miter" stroke-miterlimit="4" path="" fill-rule="evenodd" stroke-dasharray="none" style="display: none;"/></g><g class="shapebase"><g transform="matrix(1.00000000,0.00000000,0.00000000,1.00000000,1074.00000000,364.00000000)"><path fill="rgb(204, 204, 255)" fill-opacity="0" stroke="rgb(204, 102, 0)" stroke-opacity="1" stroke-width="3.0" stroke-linecap="butt" stroke-linejoin="miter" stroke-miterlimit="4" path="" stroke-dasharray="none" d="m80.8567925046884,20.79626637576193c0,3.4183245466476118 -3.4937451346082615,6.188920787932153 -7.8042811035104,6.188920787932153l-65.22412857260197,0c-4.310535968902139,0 -7.8042811035104,-2.7705962412845415 -7.8042811035104,-6.188920787932153l0,-12.820528370692982c0,-3.4183245466476118 3.4937451346082615,-6.188920787932153 7.8042811035104,-6.188920787932153l66.33876483416633,-1.7682113302444884c4.310974514316524,0 7.804719648924786,3.654868547917114 7.804719648924786,7.073193094564725l-1.1150894251592167,13.704452903738783z" fill-rule="evenodd"/></g><rect fill="rgb(0, 0, 0)" fill-opacity="0" stroke="none" stroke-opacity="0" stroke-width="1" stroke-linecap="butt" stroke-linejoin="miter" stroke-miterlimit="4" x="1074" y="364" width="82" height="27" ry="0" rx="0" fill-rule="evenodd"/><g transform="matrix(1.00000000,0.00000000,0.00000000,1.00000000,1074.00000000,364.00000000)"><g class="shapebase"><text fill="rgb(51, 51, 51)" fill-opacity="1" stroke="none" stroke-opacity="0" stroke-width="1" stroke-linecap="butt" stroke-linejoin="miter" stroke-miterlimit="4" x="41" y="17" text-anchor="middle" text-decoration="none" rotate="0" kerning="auto" text-rendering="auto" fill-rule="evenodd" font-style="normal" font-variant="normal" font-weight="bold" font-size="12px" font-family="arial,helvetica,sans-serif">State (NEW)</text></g></g></g><g class="shapebase"><polyline fill="rgb(255, 255, 255)" fill-opacity="0" stroke="rgb(204, 102, 0)" stroke-opacity="1" stroke-width="2" stroke-linecap="butt" stroke-linejoin="miter" stroke-miterlimit="4" points="740.80541284 290.15665646 724.00000000 301.00000000 741.79331739 310.13224267" fill-rule="evenodd" stroke-dasharray="none" dojoGfxStrokeStyle="solid" style="display: inline;"/><path fill="none" fill-opacity="0" stroke="rgb(204, 102, 0)" stroke-opacity="1" stroke-width="2" stroke-linecap="butt" stroke-linejoin="miter" stroke-miterlimit="4" path="" stroke-dasharray="none" d="M956,377 C956,377 952.5693967154394,345.2988169635854 942,335 915.7941853085492,309.4650620886769 873.1406733351745,308.7122244929611 837,303 799.7893553872966,297.1186608897881 724,301 724,301"/><path fill="none" fill-opacity="0" stroke="rgb(51, 51, 51)" stroke-opacity="0" stroke-width="10" stroke-linecap="butt" stroke-linejoin="miter" stroke-miterlimit="4" path="" stroke-dasharray="none" style="display: none;" d="M956,377 C956,377 952.5693967154394,345.2988169635854 942,335 915.7941853085492,309.4650620886769 873.1406733351745,308.7122244929611 837,303 799.7893553872966,297.1186608897881 724,301 724,301"/><path fill="rgb(250, 250, 250)" fill-opacity="1" stroke="rgb(204, 102, 0)" stroke-opacity="1" stroke-width="2" stroke-linecap="butt" stroke-linejoin="miter" stroke-miterlimit="4" path="" stroke-dasharray="none" fill-rule="evenodd" style="display: none;"/><path fill="rgb(250, 250, 250)" fill-opacity="1" stroke="rgb(204, 102, 0)" stroke-opacity="1" stroke-width="2" stroke-linecap="butt" stroke-linejoin="miter" stroke-miterlimit="4" path="" fill-rule="evenodd" stroke-dasharray="none" style="display: none;"/></g><g class="shapebase"><g transform="matrix(1.00000000,0.00000000,0.00000000,1.00000000,810.00000000,312.00000000)"><path fill="rgb(204, 204, 255)" fill-opacity="0" stroke="rgb(204, 102, 0)" stroke-opacity="1" stroke-width="3.0" stroke-linecap="butt" stroke-linejoin="miter" stroke-miterlimit="4" path="" stroke-dasharray="none" d="m80.8567925046884,20.79626637576193c0,3.4183245466476118 -3.4937451346082615,6.188920787932153 -7.8042811035104,6.188920787932153l-65.22412857260197,0c-4.310535968902139,0 -7.8042811035104,-2.7705962412845415 -7.8042811035104,-6.188920787932153l0,-12.820528370692982c0,-3.4183245466476118 3.4937451346082615,-6.188920787932153 7.8042811035104,-6.188920787932153l66.33876483416633,-1.7682113302444884c4.310974514316524,0 7.804719648924786,3.654868547917114 7.804719648924786,7.073193094564725l-1.1150894251592167,13.704452903738783z" fill-rule="evenodd"/></g><rect fill="rgb(0, 0, 0)" fill-opacity="0" stroke="none" stroke-opacity="0" stroke-width="1" stroke-linecap="butt" stroke-linejoin="miter" stroke-miterlimit="4" x="810" y="312" width="82" height="27" ry="0" rx="0" fill-rule="evenodd"/><g transform="matrix(1.00000000,0.00000000,0.00000000,1.00000000,810.00000000,312.00000000)"><g class="shapebase"><text fill="rgb(51, 51, 51)" fill-opacity="1" stroke="none" stroke-opacity="0" stroke-width="1" stroke-linecap="butt" stroke-linejoin="miter" stroke-miterlimit="4" x="41" y="17" text-anchor="middle" text-decoration="none" rotate="0" kerning="auto" text-rendering="auto" fill-rule="evenodd" font-style="normal" font-variant="normal" font-weight="bold" font-size="12px" font-family="arial,helvetica,sans-serif">State (NEW)</text></g></g></g><g class="shapebase"><g transform="matrix(0.42000000,0.00000000,0.00000000,0.42000000,595.00000000,242.00000000)"><path fill="rgb(51, 51, 51)" fill-opacity="1" stroke="rgb(51, 51, 51)" stroke-opacity="1" stroke-width="3.0" stroke-linecap="butt" stroke-linejoin="miter" stroke-miterlimit="4" path="" stroke-dasharray="none" style="stroke:none;" d="m80.048,25.168c-0.327,0.023 -0.611,0.111 -0.854,0.242c-7.11,-10.008 -21.22,-12.536 -33.36,-11.55c-10.776,0.876 -22.405,5.41 -26.8,15.287c-4.734,0.033 -8.544,1.965 -9.833,6.632c-4.579,1.775 -7.938,5.854 -5.777,11.009c1.45,3.46 4.543,5.335 7.939,5.77c-1.305,1.536 -2.175,3.337 -1.685,5.367c0.89,3.679 6.296,4.276 9.279,4.644c0.175,0.021 0.335,0.019 0.485,0.003c-0.128,0.014 5.659,13.368 6.459,14.591c2.84,4.341 6.719,7.94 11.493,10.046c10.867,4.794 22.781,0.878 31.02,-7.023c4.975,-4.77 10.455,-11.54 13.248,-17.887c2.683,-0.088 5.709,-0.546 7.359,-2.834c1.291,-1.79 0.995,-3.949 0.218,-5.909c2.61,-0.248 5.108,-1.346 6.991,-3.348c3.422,-3.637 2.175,-8.499 -1.006,-11.701c1.392,-8.429 -7.289,-13.9 -15.176,-13.339zm-72.694,20.626c-2.125,-3.325 1.18,-5.727 4.071,-6.568c0.626,-0.182 1.268,-0.72 1.393,-1.393c0.588,-3.167 2.33,-4.346 4.895,-4.627c-0.08,0.374 -0.153,0.753 -0.215,1.14c-0.094,0.173 -0.173,0.366 -0.216,0.598c-0.683,3.727 -0.865,8.078 -0.549,12.666c-0.229,0.129 -0.415,0.3 -0.561,0.502c-0.105,0.017 -0.21,0.03 -0.323,0.067c-3.196,1.048 -6.567,0.629999 -8.495,-2.385zm6.171,11.072c-0.453,-1.207 2.488,-3.401 3.73,-4.326c0.283,1.983 0.655,3.984 1.118,5.976c-1.486,-0.161001 -4.421,-0.514002 -4.848,-1.65zm36.902,28.881c-0.079,0.026 -0.145,0.063 -0.216,0.095c-0.083,-0.001 -0.162,-0.009 -0.25,0c-22.935,2.264 -32.046,-32.291 -28.829,-49.838c0.009,-0.048 0.006,-0.092 0.011,-0.139c0.11,-0.214 0.193,-0.452 0.226,-0.724c1.495,-12.218 15.01,-16.523 25.545,-17.38c12.441,-1.011 27.938,2.231 31.876,15.915c0.056,0.194 0.137,0.359 0.228,0.51c8.091,21.609 -7.887,44.814 -28.591,51.561zm35.291,-28.491c-0.379,0.636 -1.434,0.891 -2.511,0.997c0.552,-1.691 1.003,-3.41 1.332,-5.153c0.006,0.002 0.013,0.003 0.02,0.004c0.657001,1.109 1.83499,3.02 1.159,4.152zm7.354,-9.509c-2.061,2.192 -5.325,2.228 -7.998,1.341c0.437,-5.318 -0.229,-10.773 -2.272,-16.139c-0.047,-0.123 -0.106,-0.231 -0.167,-0.336c-0.354,-1.231 -0.794,-2.383 -1.294,-3.474c5.343,0.154 11.483,3.464 9.749,9.629c-0.291,1.035 0.212,1.815 0.945,2.201c2.101,1.941 3.25001,4.426 1.037,6.778z" fill-rule="evenodd"/><path fill="rgb(51, 51, 51)" fill-opacity="1" stroke="rgb(51, 51, 51)" stroke-opacity="1" stroke-width="3.0" stroke-linecap="butt" stroke-linejoin="miter" stroke-miterlimit="4" path="" stroke-dasharray="none" style="stroke:none;" d="m38.989,44.783v-0.665c0,-1.087 -0.907,-1.995 -1.995,-1.995c-1.088,0 -1.995,0.907 -1.995,1.995v0.665c0,1.087 0.907,1.995 1.995,1.995c1.088,-0.000001 1.995,-0.907003 1.995,-1.995z" fill-rule="evenodd"/><path fill="rgb(51, 51, 51)" fill-opacity="1" stroke="rgb(51, 51, 51)" stroke-opacity="1" stroke-width="3.0" stroke-linecap="butt" stroke-linejoin="miter" stroke-miterlimit="4" path="" stroke-dasharray="none" style="stroke:none;" d="m62.759,42.124c-1.087,0 -1.995,0.907 -1.995,1.995v0.831c0,1.087 0.907,1.995 1.995,1.995s1.995,-0.907 1.995,-1.995v-0.831c-0.000001,-1.088 -0.906999,-1.995 -1.995,-1.995z" fill-rule="evenodd"/><path fill="rgb(51, 51, 51)" fill-opacity="1" stroke="rgb(51, 51, 51)" stroke-opacity="1" stroke-width="3.0" stroke-linecap="butt" stroke-linejoin="miter" stroke-miterlimit="4" path="" stroke-dasharray="none" style="stroke:none;" d="m60.705,59.402c-4.301,7.604 -14.135,6.775 -19.308,0.594c-1.653,-1.975 -4.46,0.863 -2.821,2.821c6.851,8.186 20.092,8.292 25.575,-1.401c1.267,-2.243 -2.18,-4.252 -3.446,-2.014z" fill-rule="evenodd"/><path fill="rgb(51, 51, 51)" fill-opacity="1" stroke="rgb(51, 51, 51)" stroke-opacity="1" stroke-width="3.0" stroke-linecap="butt" stroke-linejoin="miter" stroke-miterlimit="4" path="" stroke-dasharray="none" style="stroke:none;" d="m49.718,58.679c0.291,0.067 0.56,0.07 0.809,0.03c0.074,0.015 0.147,0.033 0.223,0.042c4.276,0.509 7.987,-1.49 8.679,-5.968c0.022,-0.143 0.032,-0.285 0.033,-0.426c0.101,-0.467 0.049,-0.96 -0.235,-1.365c-0.596,-0.85 -1.33,-1.443 -2.063,-2.155c-0.781,-0.759 -2.049,-0.779 -2.828,0c-0.762,0.762 -0.782,2.069 0,2.828c0.243,0.236 0.502,0.454 0.758,0.677c0.104,0.091 0.203,0.188 0.303,0.283c-0.17,0.687 -0.454,1.336 -1.062,1.742c-1.02,0.681 -2.436,0.52 -3.584,0.383c-0.084,-0.01 -0.166,0 -0.248,0.005c-0.696,-0.171 -1.555,-0.435 -1.879,-0.907c-0.367,-0.534 -0.014,-1.57 0.354,-2.339c1.107,-2.315 -2.341,-4.345 -3.454,-2.019c-0.904,1.891 -1.491,3.963 -0.566,5.964c0.862001,1.867 2.861,2.786 4.76,3.225z" fill-rule="evenodd"/></g><rect fill="rgb(0, 0, 0)" fill-opacity="0" stroke="none" stroke-opacity="0" stroke-width="1" stroke-linecap="butt" stroke-linejoin="miter" stroke-miterlimit="4" x="595" y="242" width="42" height="42" ry="0" rx="0" fill-rule="evenodd"/><g transform="matrix(1.00000000,0.00000000,0.00000000,1.00000000,595.00000000,242.00000000)"><g class="shapebase"/></g></g><g class="shapebase"><g transform="matrix(1.00000000,0.00000000,0.00000000,1.00000000,610.00000000,400.00000000)"><path fill="rgb(204, 204, 255)" fill-opacity="0" stroke="rgb(51, 0, 255)" stroke-opacity="1" stroke-width="3.0" stroke-linecap="butt" stroke-linejoin="miter" stroke-miterlimit="4" path="" stroke-dasharray="none" d="m0.7957732531767683,68.9692120594278l99.1787998236726,-1.0944119252941718l0,-63.15482507410894l-12.205945300171857,0l-0.764085429350847,-13.481131760271339l-15.257687172181159,0l-1.5261367048496426,12.386719834977168l-35.85681703476078,1.0944119252941718l-3.0512461108946067,-10.19862901313986l-12.969519635590029,0l-1.5261367048496426,10.19862901313986l-16.784324749084828,0z" fill-rule="evenodd"/></g><rect fill="rgb(0, 0, 0)" fill-opacity="0" stroke="none" stroke-opacity="0" stroke-width="1" stroke-linecap="butt" stroke-linejoin="miter" stroke-miterlimit="4" x="610" y="400" width="100" height="69" ry="0" rx="0" fill-rule="evenodd"/><g transform="matrix(1.00000000,0.00000000,0.00000000,1.00000000,610.00000000,400.00000000)"><g class="shapebase"><text fill="rgb(51, 51, 51)" fill-opacity="1" stroke="none" stroke-opacity="0" stroke-width="1" stroke-linecap="butt" stroke-linejoin="miter" stroke-miterlimit="4" x="50" y="29" text-anchor="middle" text-decoration="none" rotate="0" kerning="auto" text-rendering="auto" fill-rule="evenodd" font-style="normal" font-variant="normal" font-weight="bold" font-size="12px" font-family="arial,helvetica,sans-serif">Action</text><text fill="rgb(51, 51, 51)" fill-opacity="1" stroke="none" stroke-opacity="0" stroke-width="1" stroke-linecap="butt" stroke-linejoin="miter" stroke-miterlimit="4" x="50" y="46" text-anchor="middle" text-decoration="none" rotate="0" kerning="auto" text-rendering="auto" fill-rule="evenodd" font-style="normal" font-variant="normal" font-weight="bold" font-size="12px" font-family="arial,helvetica,sans-serif">Generators</text></g></g></g><g class="shapebase"><g transform="matrix(1.00000000,0.00000000,0.00000000,1.00000000,1187.00000000,394.00000000)"><path fill="rgb(204, 204, 255)" fill-opacity="0" stroke="rgb(204, 0, 153)" stroke-opacity="1" stroke-width="3.0" stroke-linecap="butt" stroke-linejoin="miter" stroke-miterlimit="4" path="" stroke-dasharray="none" d="m0.8594351134309097,58.973674079800595l107.11310380956641,-0.9358015013384947l0,-54.00195187496272l-13.182420924185605,0l-0.8252122636989146,-11.527344548637812l-16.478302145955652,0l-1.648227641237614,10.591543047299318l-38.72536239754164,0.9358015013384947l-3.295345799766175,-8.720566837322488l-14.00708120643723,0l-1.648227641237614,8.720566837322488l-18.12707072901161,0z" fill-rule="evenodd"/></g><rect fill="rgb(0, 0, 0)" fill-opacity="0" stroke="none" stroke-opacity="0" stroke-width="1" stroke-linecap="butt" stroke-linejoin="miter" stroke-miterlimit="4" x="1187" y="394" width="108" height="59" ry="0" rx="0" fill-rule="evenodd"/><g transform="matrix(1.00000000,0.00000000,0.00000000,1.00000000,1187.00000000,394.00000000)"><g class="shapebase"><text fill="rgb(51, 51, 51)" fill-opacity="1" stroke="none" stroke-opacity="0" stroke-width="1" stroke-linecap="butt" stroke-linejoin="miter" stroke-miterlimit="4" x="54" y="33" text-anchor="middle" text-decoration="none" rotate="0" kerning="auto" text-rendering="auto" fill-rule="evenodd" font-style="normal" font-variant="normal" font-weight="bold" font-size="12px" font-family="arial,helvetica,sans-serif">Reducers</text></g></g></g><g class="shapebase"><polyline fill="rgb(255, 255, 255)" fill-opacity="0" stroke="rgb(51, 0, 255)" stroke-opacity="1" stroke-width="2" stroke-linecap="butt" stroke-linejoin="miter" stroke-miterlimit="4" points="650.27185716 378.52535445 660.00000000 396.00000000 670.26941555 378.83785840" fill-rule="evenodd" stroke-dasharray="none" dojoGfxStrokeStyle="solid" style="display: inline;"/><path fill="none" fill-opacity="0" stroke="rgb(51, 0, 255)" stroke-opacity="1" stroke-width="2" stroke-linecap="butt" stroke-linejoin="miter" stroke-miterlimit="4" path="" stroke-dasharray="none" d="M670,331 C670,363.5 660,363.5  660,396"/><path fill="none" fill-opacity="0" stroke="rgb(51, 51, 51)" stroke-opacity="0" stroke-width="10" stroke-linecap="butt" stroke-linejoin="miter" stroke-miterlimit="4" path="" stroke-dasharray="none" style="display: none;" d="M670,331 C670,363.5 660,363.5  660,396"/><path fill="rgb(250, 250, 250)" fill-opacity="1" stroke="rgb(51, 0, 255)" stroke-opacity="1" stroke-width="2" stroke-linecap="butt" stroke-linejoin="miter" stroke-miterlimit="4" path="" stroke-dasharray="none" fill-rule="evenodd" style="display: none;"/><path fill="rgb(250, 250, 250)" fill-opacity="1" stroke="rgb(51, 0, 255)" stroke-opacity="1" stroke-width="2" stroke-linecap="butt" stroke-linejoin="miter" stroke-miterlimit="4" path="" fill-rule="evenodd" stroke-dasharray="none" style="display: none;"/></g><g class="shapebase"><g transform="matrix(0.83000000,0.00000000,0.00000000,0.46000000,760.00000000,484.00000000)"><path fill="rgb(51, 51, 51)" fill-opacity="1" stroke="rgb(51, 51, 51)" stroke-opacity="1" stroke-width="3.0" stroke-linecap="butt" stroke-linejoin="miter" stroke-miterlimit="4" path="" stroke-dasharray="none" style="stroke:none;" d="m73.607,33.779c-4.406,0 -8.567,1.414 -12.084,4.097c-2.708,-11.357 -13.417,-19.519 -25.782,-19.519c-1.001,0 -2.014,0.055 -3.012,0.164c-7.08,0.772 -12.644,4.628 -15.667,10.855c-3.177,6.546 -2.858,14.462 0.789,20.885c-8.071,-0.155001 -14.292,5.138 -15.356,13.095c-0.493,3.687 0.418,6.883 2.709,9.5c3.837,4.384 10.54,5.946 15.534,5.946c1.149,0 2.273,-0.078 3.267,-0.223c0.095,0.013 0.191,0.024 0.295,0.024c16.86,0 35.969,0 54.808,-0.259c0.184,-0.003 0.37,-0.025 0.564,-0.07c0.266,0.037 0.543,0.04 0.845,-0.012c6.255,-1.087 11.246,-4.607 14.054,-9.913c3.164,-5.979 3.212,-13.611 0.13,-20.415c-3.836,-8.466 -12.313,-14.155 -21.094,-14.155zm-50.275,22.421c1.179,0.188 2.432,-0.568 2.888,-1.718c0.368,-0.925 0.134,-1.906 -0.626,-2.624c-5.274,-4.98 -7.055,-12.038 -4.647,-18.418c2.261,-5.992 7.639,-9.711 14.386,-9.949c11.857,-0.41 21.688,8.754 21.712,20.072c0.004,1.645 1.297,2.505 2.573,2.505c1.149,0 2.091,-0.636 2.433,-1.631c3.222,-3.599 7.285,-5.5 11.755,-5.5c6.984,0 13.626,4.761 16.529,11.847c2.171,5.3 2.058,10.822 -0.309,15.15c-2.117,3.87 -5.758,6.388 -10.533,7.283c-0.118,-0.017 -0.243,-0.027 -0.395,-0.027c-0.001,0 -0.002,0 -0.003,0c-18.829,0.26 -37.936,0.26 -54.794,0.26c-0.182,0 -0.36,0.018 -0.542,0.055c-0.194,-0.012 -0.395,-0.008 -0.609,0.025c-0.993,0.16 -2.021,0.241 -3.057,0.241c-5.733,0 -12.446,-2.507 -12.497,-9.57c-0.016,-2.278 0.773,-4.286 2.282,-5.806c1.853,-1.865 4.684,-2.936 7.767,-2.936c1.16,0 2.294,0.153 3.371,0.458c0.187,0.053 0.38,0.083 0.587,0.093c0.517999,0.253998 1.097,0.334999 1.729,0.189999z" fill-rule="evenodd"/></g><rect fill="rgb(0, 0, 0)" fill-opacity="0" stroke="none" stroke-opacity="0" stroke-width="1" stroke-linecap="butt" stroke-linejoin="miter" stroke-miterlimit="4" x="760" y="484" width="83" height="46" ry="0" rx="0" fill-rule="evenodd"/><g transform="matrix(1.00000000,0.00000000,0.00000000,1.00000000,760.00000000,484.00000000)"><g class="shapebase"><text fill="rgb(51, 51, 51)" fill-opacity="1" stroke="none" stroke-opacity="0" stroke-width="1" stroke-linecap="butt" stroke-linejoin="miter" stroke-miterlimit="4" x="41" y="61" text-anchor="middle" text-decoration="none" rotate="0" kerning="auto" text-rendering="auto" fill-rule="evenodd" font-style="normal" font-variant="normal" font-weight="bold" font-size="12px" font-family="arial,helvetica,sans-serif">External</text><text fill="rgb(51, 51, 51)" fill-opacity="1" stroke="none" stroke-opacity="0" stroke-width="1" stroke-linecap="butt" stroke-linejoin="miter" stroke-miterlimit="4" x="41" y="78" text-anchor="middle" text-decoration="none" rotate="0" kerning="auto" text-rendering="auto" fill-rule="evenodd" font-style="normal" font-variant="normal" font-weight="bold" font-size="12px" font-family="arial,helvetica,sans-serif">trigger</text></g></g></g><g class="shapebase"><polyline fill="rgb(255, 255, 255)" fill-opacity="0" stroke="rgb(51, 0, 255)" stroke-opacity="1" stroke-width="2" stroke-linecap="butt" stroke-linejoin="miter" stroke-miterlimit="4" points="670.21888014 490.19227992 660.00000000 473.00000000 650.22048891 490.44594976" fill-rule="evenodd" stroke-dasharray="none" dojoGfxStrokeStyle="solid" style="display: inline;"/><path fill="none" fill-opacity="0" stroke="rgb(51, 0, 255)" stroke-opacity="1" stroke-width="2" stroke-linecap="butt" stroke-linejoin="miter" stroke-miterlimit="4" path="" stroke-dasharray="none" d="M758,507 C678,507 660,553  660,473"/><path fill="none" fill-opacity="0" stroke="rgb(51, 51, 51)" stroke-opacity="0" stroke-width="10" stroke-linecap="butt" stroke-linejoin="miter" stroke-miterlimit="4" path="" stroke-dasharray="none" style="display: none;" d="M758,507 C678,507 660,553  660,473"/><path fill="rgb(250, 250, 250)" fill-opacity="1" stroke="rgb(51, 0, 255)" stroke-opacity="1" stroke-width="2" stroke-linecap="butt" stroke-linejoin="miter" stroke-miterlimit="4" path="" stroke-dasharray="none" fill-rule="evenodd" style="display: none;"/><path fill="rgb(250, 250, 250)" fill-opacity="1" stroke="rgb(51, 0, 255)" stroke-opacity="1" stroke-width="2" stroke-linecap="butt" stroke-linejoin="miter" stroke-miterlimit="4" path="" fill-rule="evenodd" stroke-dasharray="none" style="display: none;"/></g><g class="shapebase"><polyline fill="rgb(255, 255, 255)" fill-opacity="0" stroke="rgb(51, 0, 255)" stroke-opacity="1" stroke-width="2" stroke-linecap="butt" stroke-linejoin="miter" stroke-miterlimit="4" points="865.16369938 425.04800422 883.00000000 416.00000000 866.24604819 405.07731267" fill-rule="evenodd" stroke-dasharray="none" dojoGfxStrokeStyle="solid" style="display: inline;"/><path fill="none" fill-opacity="0" stroke="rgb(51, 0, 255)" stroke-opacity="1" stroke-width="2" stroke-linecap="butt" stroke-linejoin="miter" stroke-miterlimit="4" path="" stroke-dasharray="none" d="M712,434 C712,434 744.733074831955,420.8417454958806 762,418 801.8033924132466,411.44926152107035 883,416 883,416"/><path fill="none" fill-opacity="0" stroke="rgb(51, 51, 51)" stroke-opacity="0" stroke-width="10" stroke-linecap="butt" stroke-linejoin="miter" stroke-miterlimit="4" path="" stroke-dasharray="none" style="display: none;" d="M712,434 C712,434 744.733074831955,420.8417454958806 762,418 801.8033924132466,411.44926152107035 883,416 883,416"/><path fill="rgb(250, 250, 250)" fill-opacity="1" stroke="rgb(51, 0, 255)" stroke-opacity="1" stroke-width="2" stroke-linecap="butt" stroke-linejoin="miter" stroke-miterlimit="4" path="" stroke-dasharray="none" fill-rule="evenodd" style="display: none;"/><path fill="rgb(250, 250, 250)" fill-opacity="1" stroke="rgb(51, 0, 255)" stroke-opacity="1" stroke-width="2" stroke-linecap="butt" stroke-linejoin="miter" stroke-miterlimit="4" path="" fill-rule="evenodd" stroke-dasharray="none" style="display: none;"/></g><g class="shapebase"><g transform="matrix(1.00000000,0.00000000,0.00000000,1.00000000,620.00000000,273.00000000)"><path fill="rgb(204, 204, 255)" fill-opacity="0" stroke="rgb(51, 51, 51)" stroke-opacity="1" stroke-width="3.0" stroke-linecap="butt" stroke-linejoin="miter" stroke-miterlimit="4" path="" stroke-dasharray="none" d="m13.56624,-0.1244l74.6108,-0.634034c0.851502,-0.007202 1.582534,0.687012 1.537072,1.53711l-2.53566,47.4196c-0.045456,0.849854 -0.68554,1.540528 -1.537072,1.536866l-73.343,-0.316894c-0.851532,-0.003906 -1.560294,-0.686036 -1.537074,-1.53711l1.267828,-46.4686c0.023226,-0.851318 0.685566,-1.53003 1.537074,-1.53711z" fill-rule="evenodd"/><path fill="rgb(204, 204, 255)" fill-opacity="0" stroke="rgb(51, 51, 51)" stroke-opacity="1" stroke-width="3.0" stroke-linecap="butt" stroke-linejoin="miter" stroke-miterlimit="4" path="" stroke-dasharray="none" d="m0.033878,52.5556c-0.045004,0.62378 -0.033878,0.55664 -0.033878,1.281494c0,0.949952 0.717246,1.682128 1.658768,1.687988l96.9066,0.59961c0.94152,0.006104 1.7639,-0.374756 1.658768,-1.31958c-0.079238,-0.712158 0.097022,-0.945068 -0.1204,-1.731446l-39.216,-0.32251c-0.066238,0.860352 -0.787358,1.54663 -1.658768,1.538086l-16.45634,-0.15918c-0.871406,-0.0083 -1.59254,-0.708008 -1.658768,-1.569824z" fill-rule="evenodd"/></g><rect fill="rgb(0, 0, 0)" fill-opacity="0" stroke="none" stroke-opacity="0" stroke-width="1" stroke-linecap="butt" stroke-linejoin="miter" stroke-miterlimit="4" x="620" y="273" width="100" height="56" ry="0" rx="0" fill-rule="evenodd"/><g transform="matrix(1.00000000,0.00000000,0.00000000,1.00000000,620.00000000,273.00000000)"><g class="shapebase"/></g></g><g class="shapebase"><g transform="matrix(1.00000000,0.00000000,0.00000000,1.00000000,657.00000000,284.00000000)"/><rect fill="rgb(0, 0, 0)" fill-opacity="0" stroke="none" stroke-opacity="0" stroke-width="1" stroke-linecap="butt" stroke-linejoin="miter" stroke-miterlimit="4" x="657" y="284" width="39" height="34" ry="4" rx="4" fill-rule="evenodd"/><g transform="matrix(1.00000000,0.00000000,0.00000000,1.00000000,657.00000000,284.00000000)"><g class="shapebase"><text fill="rgb(51, 51, 51)" fill-opacity="1" stroke="none" stroke-opacity="0" stroke-width="1" stroke-linecap="butt" stroke-linejoin="miter" stroke-miterlimit="4" x="0" y="21" text-anchor="start" text-decoration="none" rotate="0" kerning="auto" text-rendering="auto" fill-rule="evenodd" font-style="normal" font-variant="normal" font-weight="Normal" font-size="12px" font-family="arial,helvetica,sans-serif"><tspan x="0" font-weight="bold">View</tspan></text></g></g></g><g class="shapebase"><g transform="matrix(1.00000000,0.00000000,0.00000000,1.00000000,755.00000000,386.00000000)"><path fill="rgb(204, 204, 255)" fill-opacity="0" stroke="rgb(51, 0, 255)" stroke-opacity="1" stroke-width="3.0" stroke-linecap="butt" stroke-linejoin="miter" stroke-miterlimit="4" path="" stroke-dasharray="none" d="m81.84285094986754,18.48557011178838c0,3.03851070813121 -3.5363517825912893,5.501262922606358 -7.899455263309308,5.501262922606358l-66.01954477470687,0c-4.363103480718019,0 -7.899455263309308,-2.462752214475148 -7.899455263309308,-5.501262922606358l0,-11.39602521839376c0,-3.03851070813121 3.5363517825912893,-5.501262922606358 7.899455263309308,-5.501262922606358l67.14777416141226,-1.5717434046617675c4.363547374247214,0 7.8998991568385035,3.2487720425929902 7.8998991568385035,6.2872827507242l-1.1286880766855487,12.181735914434473z" fill-rule="evenodd"/></g><rect fill="rgb(0, 0, 0)" fill-opacity="0" stroke="none" stroke-opacity="0" stroke-width="1" stroke-linecap="butt" stroke-linejoin="miter" stroke-miterlimit="4" x="755" y="386" width="83" height="24" ry="0" rx="0" fill-rule="evenodd"/><g transform="matrix(1.00000000,0.00000000,0.00000000,1.00000000,755.00000000,386.00000000)"><g class="shapebase"><text fill="rgb(51, 51, 51)" fill-opacity="1" stroke="none" stroke-opacity="0" stroke-width="1" stroke-linecap="butt" stroke-linejoin="miter" stroke-miterlimit="4" x="41" y="16" text-anchor="middle" text-decoration="none" rotate="0" kerning="auto" text-rendering="auto" fill-rule="evenodd" font-style="normal" font-variant="normal" font-weight="bold" font-size="12px" font-family="arial,helvetica,sans-serif">Action</text></g></g></g></g><g/><g/></g></svg>